HIERARCHY
ROOT Hips
{
	OFFSET -0.001795 -0.223333 0.028219
	CHANNELS 6 Xposition Yposition Zposition Zrotation Yrotation Xrotation 
	JOINT LeftUpLeg
	{
		OFFSET 0.069520 -0.091406 -0.006815
		CHANNELS 3 Zrotation Yrotation Xrotation
		JOINT LeftLeg
		{
			OFFSET 0.034277 -0.375199 -0.004496
			CHANNELS 3 Zrotation Yrotation Xrotation
			JOINT LeftFoot
			{
				OFFSET -0.013596 -0.397961 -0.043693
				CHANNELS 3 Zrotation Yrotation Xrotation
				JOINT LeftToe
				{
					OFFSET 0.026358 -0.055791 0.119288
					CHANNELS 3 Zrotation Yrotation Xrotation
					End Site
					{
						OFFSET 0.000000 0.000000 0.000000
					}
				}
			}
		}
	}
	JOINT RightUpLeg
	{
		OFFSET -0.067670 -0.090522 -0.004320
		CHANNELS 3 Zrotation Yrotation Xrotation
		JOINT RightLeg
		{
			OFFSET -0.038290 -0.382569 -0.008850
			CHANNELS 3 Zrotation Yrotation Xrotation
			JOINT RightFoot
			{
				OFFSET 0.015774 -0.398415 -0.042312
				CHANNELS 3 Zrotation Yrotation Xrotation
				JOINT RightToe
				{
					OFFSET -0.025372 -0.048144 0.123348
					CHANNELS 3 Zrotation Yrotation Xrotation
					End Site
					{
						OFFSET 0.000000 0.000000 0.000000
					}
				}
			}
		}
	}
	JOINT Spine
	{
		OFFSET -0.002533 0.108963 -0.026696
		CHANNELS 3 Zrotation Yrotation Xrotation
		JOINT Spine1
		{
			OFFSET 0.005487 0.135180 0.001092
			CHANNELS 3 Zrotation Yrotation Xrotation
			JOINT Spine2
			{
				OFFSET 0.001457 0.052922 0.025425
				CHANNELS 3 Zrotation Yrotation Xrotation
				JOINT Neck
				{
					OFFSET -0.002778 0.213870 -0.042857
					CHANNELS 3 Zrotation Yrotation Xrotation
					JOINT Head
					{
						OFFSET 0.005152 0.064970 0.051349
						CHANNELS 3 Zrotation Yrotation Xrotation
						End Site
						{
							OFFSET 0.000000 0.000000 0.000000
						}
					}
				}
				JOINT LeftShoulder
				{
					OFFSET 0.078845 0.121749 -0.034090
					CHANNELS 3 Zrotation Yrotation Xrotation
					JOINT LeftArm
					{
						OFFSET 0.090977 0.030469 -0.008868
						CHANNELS 3 Zrotation Yrotation Xrotation
						JOINT LeftForeArm
						{
							OFFSET 0.259612 -0.012772 -0.027456
							CHANNELS 3 Zrotation Yrotation Xrotation
							JOINT LeftHand
							{
								OFFSET 0.249234 0.008986 -0.001171
								CHANNELS 3 Zrotation Yrotation Xrotation
								End Site
								{
									OFFSET 0.000000 0.000000 0.000000
								}
							}
						}
					}
				}
				JOINT RightShoulder
				{
					OFFSET -0.081759 0.118833 -0.038615
					CHANNELS 3 Zrotation Yrotation Xrotation
					JOINT RightArm
					{
						OFFSET -0.096012 0.032551 -0.009143
						CHANNELS 3 Zrotation Yrotation Xrotation
						JOINT RightForeArm
						{
							OFFSET -0.253742 -0.013329 -0.021401
							CHANNELS 3 Zrotation Yrotation Xrotation
							JOINT RightHand
							{
								OFFSET -0.255298 0.007772 -0.005559
								CHANNELS 3 Zrotation Yrotation Xrotation
								End Site
								{
									OFFSET 0.000000 0.000000 0.000000
								}
							}
						}
					}
				}
			}
		}
	}
}
MOTION
Frames: 6
Frame Time: 0.050000
-0.009196 0.942555 0.032917 0.545035 -1.894402 8.140102 2.032181 -0.418078 -4.823776 0.065958 0.214185 -6.287250 3.441533 10.038412 12.252424 0.000000 0.000000 0.000000 -0.911006 1.038906 -10.753139 0.364756 -0.175172 -3.848884 10.812677 16.284276 12.181994 0.000000 0.000000 0.000000 9.801013 -2.018805 13.226072 4.198961 -2.351361 6.380305 -2.159588 5.193773 -0.849436 15.240146 -6.879556 -17.992898 0.000000 0.000000 0.000000 -17.788963 -25.815647 10.789930 -22.771087 -9.173262 -0.681311 -29.346799 -81.791905 28.157439 0.000000 0.000000 0.000000 27.815820 22.876111 14.439977 41.423822 32.000763 6.544311 9.400102 45.356507 5.876741 0.000000 0.000000 0.000000 
-0.010401 0.942509 0.032833 0.583103 -1.489895 7.744588 2.036208 -0.400648 -4.603397 0.180950 0.196993 -6.009782 3.250659 9.745332 12.093962 0.000000 0.000000 0.000000 -0.849218 1.005358 -10.395803 0.356359 -0.167408 -3.632319 10.571027 16.059016 11.892035 0.000000 0.000000 0.000000 9.868256 -2.011000 13.115548 4.290830 -2.427805 6.549659 -2.386420 5.109591 -0.777816 15.407327 -6.954145 -18.072008 0.000000 0.000000 0.000000 -17.133877 -26.047805 10.782637 -21.324676 -10.146614 -0.527122 -23.850876 -82.302870 23.493615 0.000000 0.000000 0.000000 27.892889 22.582598 14.310069 41.773826 32.314192 6.715456 9.276356 45.149091 5.806201 0.000000 0.000000 0.000000 
-0.011407 0.942415 0.032583 0.566144 -1.121462 7.636505 2.157367 -0.395659 -4.549835 0.173200 0.196915 -6.008209 3.070648 9.480401 12.029807 0.000000 0.000000 0.000000 -0.743011 0.974102 -10.033862 0.342242 -0.181063 -4.027079 10.435412 15.806573 11.907289 0.000000 0.000000 0.000000 9.836664 -1.987978 12.931164 4.295120 -2.440865 6.502364 -2.438317 5.237306 -0.751815 15.790087 -7.149746 -18.101140 0.000000 0.000000 0.000000 -16.777272 -26.502422 10.905337 -20.218845 -10.773530 -0.429776 -22.508406 -83.022140 22.532854 0.000000 0.000000 0.000000 28.275349 22.215909 14.267749 41.289303 32.318527 6.558927 9.054875 44.772551 5.678042 0.000000 0.000000 0.000000 
-0.012243 0.942315 0.032115 0.706912 -0.844847 7.795076 2.147803 -0.405789 -4.668496 0.060455 0.211058 -6.238447 2.901774 9.261720 12.140569 0.000000 0.000000 0.000000 -0.816736 0.971863 -10.051605 0.295148 -0.188826 -4.315018 10.304946 15.585405 11.889389 0.000000 0.000000 0.000000 9.917962 -1.949682 12.434642 4.164607 -2.383005 6.583615 -2.711696 5.012688 -0.950854 15.989228 -7.296714 -17.944101 0.000000 0.000000 0.000000 -15.774443 -26.827861 10.965380 -19.585537 -11.647643 -0.330392 -24.534032 -83.557236 24.569256 0.000000 0.000000 0.000000 28.163775 22.235014 14.239638 41.268817 32.518189 6.650507 8.965653 44.894142 5.656398 0.000000 0.000000 0.000000 
-0.012868 0.941991 0.031456 0.843180 -0.746123 7.746754 1.968743 -0.405068 -4.634534 0.200755 0.206087 -6.309206 2.845571 9.179395 12.123385 0.000000 0.000000 0.000000 -0.725604 0.955781 -9.846548 -0.053466 -0.180126 -4.648731 10.245342 15.549176 11.790220 0.000000 0.000000 0.000000 9.849464 -1.919663 12.280338 4.119152 -2.364981 6.611559 -2.887998 5.028258 -1.037014 16.128371 -7.405425 -17.793362 0.000000 0.000000 0.000000 -15.015018 -27.105543 10.985928 -19.084533 -12.343870 -0.251436 -30.687288 -84.167353 30.407312 0.000000 0.000000 0.000000 28.181470 22.191857 14.256734 41.158204 32.731717 6.697489 9.196340 45.024882 5.777140 0.000000 0.000000 0.000000 
-0.013271 0.941991 0.030695 0.981092 -0.656197 7.898111 1.738955 -0.418904 -4.778223 0.404608 0.201432 -6.466569 2.773427 9.102129 12.255801 0.000000 0.000000 0.000000 -0.879083 0.971275 -10.083696 -0.014290 -0.180573 -4.598437 10.181753 15.449090 11.772174 0.000000 0.000000 0.000000 9.963711 -1.924500 12.137661 3.982675 -2.257810 6.091532 -3.058463 5.106026 -0.948428 16.186029 -7.503860 -17.521380 0.000000 0.000000 0.000000 -14.122184 -27.317625 10.954278 -18.447597 -13.559188 -0.133867 -30.222097 -84.220283 29.967864 0.000000 0.000000 0.000000 27.991033 21.942900 14.114065 41.648221 32.893781 6.854234 9.396654 45.135886 5.906302 0.000000 0.000000 0.000000 
